<svg width="644" height="900" viewBox="0 0 644 900" fill="none" xmlns="http://www.w3.org/2000/svg">
<g clip-path="url(#clip0_2269_3623)">
<path d="M204.236 658.729L195.955 631.536L222.5 627.981L214.897 600.103L236.651 590.446L224.295 566" stroke="#AAAAAA" stroke-width="8"/>
<path d="M479.735 116.558L461.962 113.942L467.103 97.8163L449.122 94.6275L449.482 79.5906L432.178 80.0446" stroke="#AAAAAA" stroke-width="8"/>
<path d="M81 166L141 200L5 266L81 166Z" fill="#AAAAAA"/>
<path d="M644.387 789.494L482.293 760.344L547.454 687.935L644.387 789.494Z" fill="#AAAAAA"/>
<path d="M43.1426 784.345L62.6147 669.369L168.25 817.793L43.1426 784.345Z" fill="#AAAAAA"/>
<circle cx="334" cy="879" r="130" fill="#AAAAAA"/>
<circle cx="334" cy="879" r="61" fill="white"/>
<circle cx="354.5" cy="203.5" r="40.5" fill="#AAAAAA"/>
<circle cx="21.5" cy="402.5" r="21.5" fill="#AAAAAA"/>
<circle cx="188.5" cy="110.5" r="15.5" fill="#AAAAAA"/>
<rect x="535" y="126.163" width="61.0416" height="61.0416" transform="rotate(-45 535 126.163)" fill="#AAAAAA"/>
<rect x="578" y="361.187" width="40.5355" height="40.5355" transform="rotate(-66.5477 578 361.187)" fill="#AAAAAA"/>
<rect x="261" y="20.187" width="40.5355" height="40.5355" transform="rotate(-66.5477 261 20.187)" fill="#AAAAAA"/>
<rect x="395" y="649.187" width="40.5355" height="40.5355" transform="rotate(-66.5477 395 649.187)" fill="#AAAAAA"/>
</g>
<defs>
<clipPath id="clip0_2269_3623">
<rect width="644" height="900" fill="white"/>
</clipPath>
</defs>
</svg>
