<svg width="512" height="816" viewBox="0 0 512 816" fill="none" xmlns="http://www.w3.org/2000/svg">
<path class="fill-primary" d="M-16.9695 146.3L234.056 523.076L154.33 582.751L-101.316 202.389L-16.9695 146.3Z" fill-opacity="0.1"/>
<path class="fill-primary" d="M240.394 492.435L234.059 523.076L-16.7702 146.775L-8.74643 113.427L240.394 492.435Z" fill-opacity="0.12"/>
<path class="fill-primary" d="M154.33 582.751L-42.4497 735.661L-173.692 704.083L98.5421 499.809L154.33 582.751Z" fill-opacity="0.07"/>
<path class="fill-primary" d="M-193.048 687.493L-159.11 693.065L98.5411 499.809L81.683 475L-193.048 687.493Z" fill-opacity="0.05"/>
<path class="fill-primary" d="M351.827 -117.32L-8.74813 113.428L54.6062 208.048L504.834 -80.5052L351.827 -117.32Z" fill-opacity="0.07"/>
<path class="fill-primary" d="M-83.939 132.689L-93.906 167.645L364.722 -125.631L342.996 -147.46L-83.939 132.689Z" fill-opacity="0.05"/>
</svg>
