<svg width="509" height="900" viewBox="0 0 509 900" fill="none" xmlns="http://www.w3.org/2000/svg">
<path d="M450.301 560.912L121 256L184 180L518.584 487.296L450.301 560.912Z" fill="white" fill-opacity="0.1"/>
<path d="M519.499 522.5V487L449.999 561V595.5L519.499 522.5Z" fill="white" fill-opacity="0.07"/>
<path d="M122 287L121 256L450 560.5V594.5L122 287Z" fill="white" fill-opacity="0.12"/>
<path d="M184 180L338.191 -13H472L257 247L184 180Z" fill="white" fill-opacity="0.07"/>
<path d="M494.5 -1.5L460.5 1L257 247L279 267L494.5 -1.5Z" fill="white" fill-opacity="0.05"/>
<path d="M156 900.5L450 594.5L367 518L0 900.5H156Z" fill="white" fill-opacity="0.07"/>
<path d="M518 558.5L519.5 522.5L145.5 911.5L171.5 927.5L518 558.5Z" fill="white" fill-opacity="0.05"/>
</svg>
