<svg width="133" height="133" viewBox="0 0 133 133" fill="none" xmlns="http://www.w3.org/2000/svg">
<path d="M0 101.784H133V101.718H0V101.784Z" fill="#ECECEC"/>
<path d="M110.863 106.066H119.674V106H110.863V106.066Z" fill="#ECECEC"/>
<path d="M88.6797 106.066H107.514V106H88.6797V106.066Z" fill="#ECECEC"/>
<path d="M73.1875 103.596H78.2928V103.529H73.1875V103.596Z" fill="#ECECEC"/>
<path d="M13.9541 104.043H23.0752V103.976H13.9541V104.043Z" fill="#ECECEC"/>
<path d="M25.4434 104.043H42.0279V103.976H25.4434V104.043Z" fill="#ECECEC"/>
<path d="M50.0967 105.166H59.8892V105.1H50.0967V105.166Z" fill="#ECECEC"/>
<mask id="mask0_160_1268" style="mask-type:luminance" maskUnits="userSpaceOnUse" x="0" y="0" width="133" height="133">
<path d="M0 1.52588e-05H133V133H0V1.52588e-05Z" fill="white"/>
</mask>
<g mask="url(#mask0_160_1268)">
<path d="M11.6814 14.6839C10.8808 14.6839 10.2296 15.3351 10.2296 16.1357V88.3364C10.2296 89.137 10.8808 89.7882 11.6814 89.7882H63.0457C63.8459 89.7882 64.4973 89.137 64.4973 88.3364V16.1357C64.4973 15.3351 63.8459 14.6839 63.0457 14.6839H11.6814ZM63.0457 89.8547H11.6814C10.8443 89.8547 10.1631 89.1738 10.1631 88.3364V16.1357C10.1631 15.2986 10.8443 14.6174 11.6814 14.6174H63.0457C63.8826 14.6174 64.5638 15.2986 64.5638 16.1357V88.3364C64.5638 89.1738 63.8826 89.8547 63.0457 89.8547Z" fill="#ECECEC"/>
<path d="M69.2163 14.6839C68.4159 14.6839 67.7647 15.3351 67.7647 16.1357V88.3364C67.7647 89.137 68.4159 89.7882 69.2163 89.7882H120.581C121.381 89.7882 122.032 89.137 122.032 88.3364V16.1357C122.032 15.3351 121.381 14.6839 120.581 14.6839H69.2163ZM120.581 89.8547H69.2163C68.3792 89.8547 67.6982 89.1738 67.6982 88.3364V16.1357C67.6982 15.2986 68.3792 14.6174 69.2163 14.6174H120.581C121.418 14.6174 122.099 15.2986 122.099 16.1357V88.3364C122.099 89.1738 121.418 89.8547 120.581 89.8547Z" fill="#ECECEC"/>
<path d="M20.1719 51.3971H56.2678V20.1232H20.1719V51.3971Z" fill="#E7E7E7"/>
<path d="M19.3691 51.3971H55.4651V20.1232H19.3691V51.3971Z" fill="#F5F5F5"/>
<path d="M54.0258 21.2409H20.8096V50.2796H54.0258V21.2409Z" fill="#FAFAFA"/>
<path d="M40.7036 50.2795L46.7216 21.2408H34.1313L28.1133 50.2795H40.7036Z" fill="white"/>
<path d="M21.416 21.2409H20.8096V50.2796H21.416V21.2409Z" fill="#E7E7E7"/>
<path d="M19.9648 45.0726H54.8696V43.5721H19.9648V45.0726Z" fill="#F5F5F5"/>
<path d="M54.5957 100.134H60.3594V75.1375H54.5957V100.134Z" fill="#F0F0F0"/>
<path d="M16.9502 100.134H59.2524V101.718H16.9502V100.134Z" fill="#F0F0F0"/>
<path d="M54.5957 100.134H15.8438V75.1375H54.5957V100.134Z" fill="#F5F5F5"/>
<path d="M52.3292 86.4122H18.1094V78.2141H52.3292V86.4122Z" fill="#F0F0F0"/>
<path d="M52.3292 97.0573H18.1094V88.8594H52.3292V97.0573Z" fill="#F0F0F0"/>
<path d="M25.9966 82.8753H44.4421C44.7512 82.8753 45.0042 82.6223 45.0042 82.3132C45.0042 82.0039 44.7512 81.7512 44.4421 81.7512H25.9966C25.6875 81.7512 25.4346 82.0039 25.4346 82.3132C25.4346 82.6223 25.6875 82.8753 25.9966 82.8753Z" fill="#F5F5F5"/>
<path d="M25.9966 93.5204H44.4421C44.7512 93.5204 45.0042 93.2674 45.0042 92.9583C45.0042 92.6489 44.7512 92.3962 44.4421 92.3962H25.9966C25.6875 92.3962 25.4346 92.6489 25.4346 92.9583C25.4346 93.2674 25.6875 93.5204 25.9966 93.5204Z" fill="#F5F5F5"/>
<path d="M114.812 36.4693C118.094 35.5646 119.217 29.6094 110.922 27.1784C112.751 33.1671 109.089 38.0464 114.812 36.4693Z" fill="#ECECEC"/>
<path d="M115.538 39.0544C118.124 36.2577 115.678 29.9341 106.357 32.5174C111.63 37.1312 111.028 43.9304 115.538 39.0544Z" fill="#E1E1E1"/>
<path d="M112.984 39.7716C110.818 37.6274 113.92 30.1669 121.07 33.6244C117.018 37.4981 116.76 43.5097 112.984 39.7716Z" fill="#FAFAFA"/>
<path d="M110.824 43.9491H117.126L117.601 39.6856H110.349L110.824 43.9491Z" fill="#E7E7E7"/>
<path d="M110.278 40.4477H117.672C117.932 40.4477 118.143 40.237 118.143 39.9771C118.143 39.7175 117.932 39.5068 117.672 39.5068H110.278C110.018 39.5068 109.808 39.7175 109.808 39.9771C109.808 40.237 110.018 40.4477 110.278 40.4477Z" fill="#E7E7E7"/>
<path d="M57.8037 94.4968V87.2757H63.8193V80.0546H69.8351V72.8335H75.8507V65.6124H81.8663V58.3913H87.8822V51.1702H93.8978V43.9491H99.9133H132.999V101.718H57.8037H51.7881V94.4968H57.8037Z" fill="#FAFAFA"/>
<path d="M90.8906 94.4968V87.2757H96.9062V80.0546H102.922V72.8335H108.938V65.6124H114.953V58.3913H120.969V51.1702H126.985V43.9491H133V51.1702V101.718H90.8906H84.875V94.4968H90.8906Z" fill="#E1E1E1"/>
<path d="M84.8743 94.4968H51.4336V96.6631H84.8743V94.4968Z" fill="#ECECEC"/>
<path d="M90.8899 87.2757H57.4492V89.442H90.8899V87.2757Z" fill="#ECECEC"/>
<path d="M96.9056 80.0546H63.4648V82.2209H96.9056V80.0546Z" fill="#ECECEC"/>
<path d="M102.921 72.8335H69.4805V74.9998H102.921V72.8335Z" fill="#ECECEC"/>
<path d="M108.938 65.6123H75.4971V67.7787H108.938V65.6123Z" fill="#ECECEC"/>
<path d="M114.953 58.3912H81.5127V60.5576H114.953V58.3912Z" fill="#ECECEC"/>
<path d="M120.969 51.1701H87.5283V53.3365H120.969V51.1701Z" fill="#ECECEC"/>
<path d="M126.985 43.949H93.5439V46.1154H126.985V43.949Z" fill="#ECECEC"/>
</g>
<mask id="mask1_160_1268" style="mask-type:luminance" maskUnits="userSpaceOnUse" x="0" y="0" width="133" height="133">
<path d="M0 1.52588e-05H133V133H0V1.52588e-05Z" fill="white"/>
</mask>
<g mask="url(#mask1_160_1268)">
<path d="M115.469 37.2989C111.356 34.4995 102.513 33.0658 97.533 34.719C91.174 36.8297 91.3987 41.4639 86.7701 44.3301C74.271 52.0702 61.5754 46.8653 48.3645 43.5281C19.0866 36.1314 0.747812 64.3022 29.5048 81.6212C46.7905 92.0313 83.1049 99.6349 87.193 72.0398C88.9601 60.1127 82.5795 59.2053 97.4069 56.6062C103.258 55.5806 134.099 49.9786 115.469 37.2989Z" fill="#AEC7DB"/>
<mask id="mask2_160_1268" style="mask-type:luminance" maskUnits="userSpaceOnUse" x="15" y="34" width="107" height="58">
<path d="M15.0664 34.0177H121.38V91.0925H15.0664V34.0177Z" fill="white"/>
</mask>
<g mask="url(#mask2_160_1268)">
<g opacity="0.899994">
<path d="M115.469 37.2989C111.356 34.4995 102.513 33.0658 97.533 34.719C91.174 36.8297 91.3987 41.4639 86.7701 44.3301C74.271 52.0702 61.5754 46.8653 48.3645 43.5281C19.0866 36.1314 0.747812 64.3022 29.5048 81.6212C46.7905 92.0313 83.1049 99.6349 87.193 72.0398C88.9601 60.1127 82.5795 59.2053 97.4069 56.6062C103.258 55.5806 134.099 49.9786 115.469 37.2989Z" fill="white"/>
</g>
</g>
</g>
<mask id="mask3_160_1268" style="mask-type:luminance" maskUnits="userSpaceOnUse" x="0" y="0" width="133" height="133">
<path d="M0 1.52588e-05H133V133H0V1.52588e-05Z" fill="white"/>
</mask>
<g mask="url(#mask3_160_1268)">
<path d="M118.075 110.719C118.075 112.383 94.9841 113.731 66.5003 113.731C38.0164 113.731 14.9258 112.383 14.9258 110.719C14.9258 109.056 38.0164 107.707 66.5003 107.707C94.9841 107.707 118.075 109.056 118.075 110.719Z" fill="#F5F5F5"/>
</g>
<mask id="mask4_160_1268" style="mask-type:luminance" maskUnits="userSpaceOnUse" x="0" y="0" width="133" height="133">
<path d="M0 1.52588e-05H133V133H0V1.52588e-05Z" fill="white"/>
</mask>
<g mask="url(#mask4_160_1268)">
<path d="M89.0296 42.1945C88.9838 42.9917 88.8904 43.7245 88.7864 44.4832C88.6819 45.2357 88.5414 45.9823 88.3808 46.7274C88.0666 48.2173 87.6339 49.6952 87.0377 51.1356L86.7976 51.6721L86.7374 51.8059L86.7074 51.8729C86.6975 51.8945 86.6896 51.9136 86.6664 51.9583C86.5914 52.1081 86.4954 52.2658 86.3594 52.4195C86.223 52.5714 86.0522 52.7188 85.8503 52.8217C85.6535 52.9244 85.4362 52.992 85.2428 53.0127C84.8478 53.0595 84.5384 52.9896 84.2769 52.9122C83.763 52.7443 83.3925 52.5124 83.043 52.2754C82.6993 52.0341 82.3918 51.7787 82.0976 51.5175C80.9418 50.4538 79.9789 49.3148 79.0918 48.0766L79.9747 47.3304C80.4926 47.822 81.0336 48.3184 81.5736 48.79C82.1117 49.2658 82.6687 49.7164 83.2292 50.1192C83.5082 50.3205 83.791 50.5083 84.0689 50.6629C84.3413 50.818 84.6238 50.9448 84.8193 50.9834C84.9116 51.0023 84.9749 50.9914 84.9457 50.985C84.9193 50.973 84.8012 51.0284 84.7762 51.06C84.7608 51.0738 84.7603 51.0725 84.7645 51.0563L84.8499 50.8339L85.0358 50.3506C85.4973 49.0395 85.8455 47.664 86.1139 46.2659C86.2536 45.5676 86.3528 44.8596 86.4581 44.1533C86.5589 43.4527 86.6398 42.7212 86.7007 42.0487L89.0296 42.1945Z" fill="#FFC4BE"/>
<path d="M87.4182 39.2673C86.4269 39.5197 85.7334 43.5991 85.7334 43.5991L88.4652 45.4571C88.4652 45.4571 91.0845 41.3416 90.3219 40.2515C89.5276 39.1165 88.8648 38.8989 87.4182 39.2673Z" fill="#AEC7DB"/>
<path d="M87.4182 39.2673C86.4269 39.5197 85.7334 43.5991 85.7334 43.5991L88.4652 45.4571C88.4652 45.4571 91.0845 41.3416 90.3219 40.2515C89.5276 39.1165 88.8648 38.8989 87.4182 39.2673Z" fill="#AEC7DB"/>
<mask id="mask5_160_1268" style="mask-type:luminance" maskUnits="userSpaceOnUse" x="85" y="39" width="6" height="7">
<path d="M85.7334 39.1028H90.461V45.457H85.7334V39.1028Z" fill="white"/>
</mask>
<g mask="url(#mask5_160_1268)">
<g opacity="0.399994">
<path d="M87.4182 39.2676C86.4269 39.52 85.7334 43.5994 85.7334 43.5994L88.4652 45.4574C88.4652 45.4574 91.0845 41.3418 90.3219 40.2518C89.5276 39.1168 88.8648 38.8992 87.4182 39.2676Z" fill="black"/>
</g>
</g>
<mask id="mask6_160_1268" style="mask-type:luminance" maskUnits="userSpaceOnUse" x="86" y="40" width="3" height="6">
<path d="M86.7461 40.1785H88.2817V45.3315H86.7461V40.1785Z" fill="white"/>
</mask>
<g mask="url(#mask6_160_1268)">
<g opacity="0.300003">
<path d="M87.5077 40.1781L86.7461 44.2899L88.2814 45.3311L87.5077 40.1781Z" fill="black"/>
</g>
</g>
<path d="M80.0248 47.1579L78.7254 45.1054L77.9883 47.4377C77.9883 47.4377 79.0541 48.5557 80.0179 48.2892L80.0248 47.1579Z" fill="#FFC4BE"/>
<path d="M76.8208 44.4266L76.3096 46.4126L77.9888 47.4377L78.7256 45.1055L76.8208 44.4266Z" fill="#FFC4BE"/>
<path d="M92.7817 107.931H90.3765L90.2158 102.361H92.621L92.7817 107.931Z" fill="#FFC4BE"/>
<path d="M114.006 96.7583L112.173 98.3155L107.978 94.5707L109.811 93.0135L114.006 96.7583Z" fill="#FFC4BE"/>
<path d="M111.671 98.1288L113.449 96.0939C113.513 96.0197 113.617 96.0045 113.699 96.0575L115.511 97.2321C115.699 97.3539 115.732 97.6356 115.579 97.804C114.947 98.5028 114.607 98.8082 113.825 99.7033C113.344 100.254 112.699 101.108 112.035 101.868C111.385 102.612 110.583 102.012 110.791 101.636C111.726 99.9501 111.501 99.358 111.517 98.5289C111.52 98.3794 111.576 98.2371 111.671 98.1288Z" fill="#1A2E35"/>
<path d="M90.2933 107.652H92.9956C93.0938 107.652 93.1736 107.721 93.1874 107.817L93.4954 109.955C93.5273 110.176 93.3366 110.386 93.1097 110.382C92.1676 110.366 91.7138 110.311 90.5253 110.311C89.7943 110.311 88.2821 110.387 87.2724 110.387C86.285 110.387 86.2092 109.389 86.6294 109.298C88.5146 108.893 89.2562 108.334 89.8914 107.8C90.0058 107.704 90.1494 107.652 90.2933 107.652Z" fill="#1A2E35"/>
<mask id="mask7_160_1268" style="mask-type:luminance" maskUnits="userSpaceOnUse" x="90" y="102" width="3" height="4">
<path d="M90.2158 102.362H92.7045V105.233H90.2158V102.362Z" fill="white"/>
</mask>
<g mask="url(#mask7_160_1268)">
<g opacity="0.199997">
<path d="M90.2158 102.362L90.2983 105.234H92.7045L92.6221 102.362H90.2158Z" fill="black"/>
</g>
</g>
<mask id="mask8_160_1268" style="mask-type:luminance" maskUnits="userSpaceOnUse" x="107" y="93" width="5" height="4">
<path d="M107.979 93.0143H111.976V96.5016H107.979V93.0143Z" fill="white"/>
</mask>
<g mask="url(#mask8_160_1268)">
<g opacity="0.199997">
<path d="M109.813 93.0143L107.979 94.5723L110.142 96.5016L111.976 94.9436L109.813 93.0143Z" fill="black"/>
</g>
</g>
<path d="M87.4179 39.2673C87.4179 39.2673 86.272 39.6708 88.5673 53.7843H98.3361C98.1723 49.8086 98.1675 47.3569 100.068 39.1976C100.068 39.1976 98.0209 38.7523 95.9195 38.651C94.2756 38.5717 92.9289 38.5193 91.4837 38.6513C89.5783 38.825 87.4179 39.2673 87.4179 39.2673Z" fill="#AEC7DB"/>
<mask id="mask9_160_1268" style="mask-type:luminance" maskUnits="userSpaceOnUse" x="87" y="38" width="14" height="16">
<path d="M87.1318 38.5708H100.068V53.7844H87.1318V38.5708Z" fill="white"/>
</mask>
<g mask="url(#mask9_160_1268)">
<g opacity="0.399994">
<path d="M87.4179 39.267C87.4179 39.267 86.272 39.6705 88.5673 53.784H98.3361C98.1723 49.8083 98.1675 47.3566 100.068 39.1973C100.068 39.1973 98.0209 38.752 95.9195 38.6507C94.2756 38.5714 92.9289 38.519 91.4837 38.651C89.5783 38.8247 87.4179 39.267 87.4179 39.267Z" fill="black"/>
</g>
</g>
<path d="M95.9198 38.6497C94.2759 38.5726 92.93 38.5194 91.4829 38.6524C91.2435 38.6737 90.9988 38.7003 90.7567 38.7295C90.5945 39.0088 90.4721 39.3839 90.6237 39.7669C90.935 40.541 92.0575 40.6314 92.8768 40.6314C95.9012 40.6314 96.4119 38.8652 96.4332 38.7907L96.4624 38.6843C96.2816 38.671 96.1007 38.6577 95.9198 38.6497Z" fill="white"/>
<path d="M95.4795 33.6563C95.1997 35.0837 94.9204 37.6987 95.919 38.651C95.919 38.651 95.5287 40.0988 92.8767 40.0988C89.9608 40.0988 91.4831 38.6513 91.4831 38.6513C93.0749 38.2712 93.0336 37.0904 92.7565 35.9814L95.4795 33.6563Z" fill="#FFC4BE"/>
<mask id="mask10_160_1268" style="mask-type:luminance" maskUnits="userSpaceOnUse" x="92" y="34" width="3" height="3">
<path d="M92.7578 34.605H94.4198V36.7676H92.7578V34.605Z" fill="white"/>
</mask>
<g mask="url(#mask10_160_1268)">
<g opacity="0.199997">
<path d="M94.3695 34.605L92.7578 35.9802C92.8243 36.2425 92.8762 36.5088 92.8945 36.7676C93.5026 36.6795 94.3379 36.0121 94.4025 35.3756C94.4347 35.058 94.4214 34.7529 94.3695 34.605Z" fill="black"/>
</g>
</g>
<path d="M93.8226 25.8943C93.5749 25.0582 93.3616 23.737 94.856 23.1534C94.2745 22.4405 94.1322 21.0999 94.8467 20.3032C95.5609 19.5068 96.6549 19.801 96.6549 19.801C96.6549 19.801 96.9739 17.8568 99.3383 18.197C101.703 18.5375 100.65 20.1029 100.65 20.1029C100.65 20.1029 103.877 19.4637 104.092 22.5038C104.308 25.5439 102.455 25.1686 102.455 25.1686C102.455 25.1686 103.895 26.3755 103.098 27.7031C102.301 29.0307 100.456 28.5732 100.456 28.5732C100.456 28.5732 99.5889 30.9185 97.5466 29.584C95.5042 28.2494 93.8226 25.8943 93.8226 25.8943Z" fill="#1A2E35"/>
<path d="M89.0299 27.6594C88.23 28.6896 88.5833 29.8589 89.2885 30.3095C91.0044 31.4055 93.4857 26.8114 92.8406 26.2605C92.1953 25.7099 89.8298 26.6292 89.0299 27.6594Z" fill="#1A2E35"/>
<path d="M96.2361 25.2064C95.1075 24.7513 93.965 25.2266 93.6075 25.9139C92.7374 27.5865 96.6875 30.6011 97.8316 28.5093C98.5109 27.2673 97.3993 25.6753 96.2361 25.2064Z" fill="#AEC7DB"/>
<path d="M95.7539 30.3167C95.8355 32.7025 95.9212 33.7106 94.8399 35.0428C93.2136 37.0465 90.2652 36.6252 89.4725 34.3121C88.7589 32.2298 88.745 28.6782 90.9762 27.5118C93.1745 26.3624 95.6722 27.931 95.7539 30.3167Z" fill="#FFC4BE"/>
<path d="M95.3995 31.5756C94.3437 31.1804 94.0681 29.9371 94.2421 29.4593C93.7144 29.437 92.5458 29.2471 92.1085 28.5863C91.2789 29.1079 89.5257 29.6485 89.3349 28.7659C89.1442 27.8833 91.7922 25.6018 93.7918 25.4273C96.169 25.2196 98.5167 27.5577 97.9105 29.7929C97.3043 32.0284 95.3995 31.5756 95.3995 31.5756Z" fill="#1A2E35"/>
<path d="M88.5673 53.7843C88.5673 53.7843 86.6702 72.3125 86.8276 79.6475C86.9918 87.2769 89.7874 104.677 89.7874 104.677H93.0398C93.0398 104.677 92.5251 87.7227 92.8126 80.23C93.126 72.0614 95.7208 53.7843 95.7208 53.7843H88.5673Z" fill="#1A2E35"/>
<path d="M93.3217 104.794H89.5054L89.2256 103.577L93.4991 103.428L93.3217 104.794Z" fill="#AEC7DB"/>
<mask id="mask11_160_1268" style="mask-type:luminance" maskUnits="userSpaceOnUse" x="91" y="57" width="4" height="19">
<path d="M91.6172 57.2482H94.8884V75.3017H91.6172V57.2482Z" fill="white"/>
</mask>
<g mask="url(#mask11_160_1268)">
<g opacity="0.199997">
<path d="M92.7814 58.3944C90.382 63.221 92.2996 72.0261 93.1482 75.3019C93.5834 70.382 94.3167 64.368 94.8886 59.9516C94.525 57.4528 93.8879 56.1691 92.7814 58.3944Z" fill="black"/>
</g>
</g>
<path d="M91.1475 53.7843C91.1475 53.7843 93.3603 73.0467 95.0316 79.2309C97.0154 86.5728 109.339 96.4539 109.339 96.4539L111.839 94.3304C111.839 94.3304 102.907 83.597 101.39 79.7289C98.1526 71.4738 100.924 59.1713 98.3364 53.7843H91.1475Z" fill="#1A2E35"/>
<path d="M112.238 94.2164L109.137 96.8506L107.979 96.1564L111.487 92.8931L112.238 94.2164Z" fill="#AEC7DB"/>
<path d="M92.2204 31.3246C92.2391 31.5177 92.1515 31.6839 92.0255 31.6962C91.8991 31.7081 91.7818 31.5616 91.7632 31.3684C91.7448 31.1753 91.8321 31.0088 91.9584 30.9968C92.0845 30.9846 92.2018 31.1314 92.2204 31.3246Z" fill="#1A2E35"/>
<path d="M90.0378 31.5338C90.0564 31.7269 89.9689 31.8932 89.8428 31.9054C89.7165 31.9174 89.5992 31.7708 89.5806 31.5777C89.5622 31.3846 89.6495 31.2181 89.7758 31.2061C89.9019 31.1939 90.0192 31.3407 90.0378 31.5338Z" fill="#1A2E35"/>
<path d="M89.8321 31.2114L89.3555 31.1223C89.3555 31.1223 89.6281 31.4617 89.8321 31.2114Z" fill="#1A2E35"/>
<path d="M90.6465 31.8103C90.6465 31.8103 90.3986 32.6732 90.0762 33.1089C90.3539 33.3225 90.7771 33.172 90.7771 33.172L90.6465 31.8103Z" fill="#FF857F"/>
<path d="M91.8504 33.8086C91.7519 33.836 91.645 33.8564 91.529 33.8676C91.4979 33.8705 91.47 33.8477 91.4671 33.816C91.4641 33.7849 91.4862 33.7575 91.5184 33.754C92.3653 33.6734 92.705 33.0427 92.7085 33.0366C92.7228 33.0084 92.7574 32.9978 92.7851 33.0124C92.813 33.0268 92.8239 33.0614 92.8093 33.0893C92.7965 33.1138 92.5233 33.6216 91.8504 33.8086Z" fill="#1A2E35"/>
<path d="M96.3178 31.9761C96.2606 32.4677 95.9816 32.8869 95.6587 33.1343C95.173 33.5061 94.7037 33.1263 94.6489 32.5493C94.5997 32.0298 94.7931 31.2106 95.3719 31.065C95.9422 30.9219 96.3833 31.414 96.3178 31.9761Z" fill="#FFC4BE"/>
<path d="M92.4539 29.9559C92.425 29.9639 92.3928 29.9604 92.3648 29.9439C91.9291 29.6824 91.5501 29.8612 91.5456 29.8633C91.4897 29.8899 91.4211 29.8673 91.3934 29.8106C91.3657 29.754 91.3894 29.6859 91.4461 29.6582C91.466 29.6487 91.9414 29.4239 92.4821 29.7484C92.5361 29.7809 92.5534 29.8508 92.5212 29.9048C92.5055 29.9309 92.4811 29.9484 92.4539 29.9559Z" fill="#1A2E35"/>
<path d="M88.9696 30.6193C88.9422 30.627 88.9122 30.6244 88.8853 30.61C88.83 30.5802 88.809 30.511 88.8387 30.4557C89.1361 29.9003 89.6596 29.849 89.682 29.8471C89.7447 29.8418 89.8001 29.8881 89.8054 29.9508C89.8107 30.0134 89.7644 30.0684 89.7019 30.0743C89.6814 30.0759 89.2761 30.1216 89.0396 30.5634C89.0241 30.5919 88.9986 30.6113 88.9696 30.6193Z" fill="#1A2E35"/>
<path d="M101.065 41.7924C101.617 43.1386 102.071 44.4691 102.465 45.8518C102.854 47.2321 103.193 48.6328 103.348 50.1182C103.393 50.4853 103.406 50.8696 103.424 51.2489L103.426 51.2846V51.3439L103.422 51.4668C103.417 51.5439 103.41 51.6224 103.398 51.6921C103.377 51.8371 103.344 51.965 103.308 52.0866C103.235 52.3273 103.144 52.5345 103.047 52.7268C102.653 53.4831 102.185 54.0571 101.698 54.613C100.712 55.7034 99.6623 56.6485 98.5147 57.5188L97.7354 56.6652C98.6219 55.6318 99.517 54.5692 100.273 53.4833C100.645 52.9447 101.003 52.3829 101.205 51.8764C101.254 51.7522 101.29 51.6341 101.31 51.5391C101.319 51.4923 101.326 51.4503 101.325 51.4221C101.327 51.4059 101.324 51.3968 101.324 51.3873C101.324 51.383 101.322 51.3822 101.322 51.3795L101.318 51.3439C101.283 51.0287 101.258 50.7167 101.199 50.3943C100.999 49.113 100.635 47.8058 100.245 46.5125C99.8375 45.2262 99.3832 43.9182 98.9047 42.6752L101.065 41.7924Z" fill="#FFC4BE"/>
<path d="M100.068 39.1976C101.046 39.4952 102.222 42.8652 102.222 42.8652L98.4249 45.58C98.4249 45.58 97.0401 42.7668 97.4513 41.5017C97.8796 40.1842 98.9508 38.8579 100.068 39.1976Z" fill="#AEC7DB"/>
<mask id="mask12_160_1268" style="mask-type:luminance" maskUnits="userSpaceOnUse" x="97" y="39" width="6" height="7">
<path d="M97.375 39.1438H102.222V45.5799H97.375V39.1438Z" fill="white"/>
</mask>
<g mask="url(#mask12_160_1268)">
<g opacity="0.399994">
<path d="M100.068 39.1978C101.046 39.4954 102.222 42.8654 102.222 42.8654L98.4249 45.5802C98.4249 45.5802 97.0401 42.767 97.4513 41.5019C97.8796 40.1844 98.9508 38.8581 100.068 39.1978Z" fill="black"/>
</g>
</g>
<path d="M111.63 98.5581C111.299 98.6637 110.868 98.8472 110.822 99.002C110.816 99.0214 110.813 99.0486 110.845 99.0853C110.904 99.1534 110.967 99.1824 111.036 99.1746C111.2 99.156 111.418 98.9283 111.63 98.5581ZM111.013 99.2898C110.919 99.2898 110.833 99.2462 110.759 99.1598C110.695 99.0863 110.698 99.0156 110.713 98.969C110.801 98.6751 111.637 98.4352 111.732 98.4088C111.754 98.4027 111.777 98.4102 111.792 98.428C111.806 98.4455 111.808 98.47 111.798 98.4902C111.648 98.7733 111.352 99.2531 111.049 99.288C111.037 99.2893 111.025 99.2898 111.013 99.2898Z" fill="#AEC7DB"/>
<path d="M110.944 98.1034C110.932 98.1034 110.92 98.1042 110.908 98.1058C110.849 98.1135 110.804 98.1404 110.772 98.1883C110.731 98.2489 110.745 98.2819 110.761 98.3037C110.864 98.4373 111.337 98.4883 111.625 98.4365C111.453 98.3027 111.151 98.1034 110.944 98.1034ZM111.367 98.5679C111.09 98.5679 110.778 98.512 110.671 98.3732C110.639 98.3311 110.597 98.2431 110.677 98.1242C110.729 98.0489 110.801 98.0045 110.893 97.9928C111.238 97.9486 111.763 98.4014 111.785 98.4208C111.801 98.4341 111.808 98.4546 111.804 98.4745C111.8 98.4942 111.786 98.5107 111.767 98.5173C111.676 98.5493 111.527 98.5679 111.367 98.5679Z" fill="#AEC7DB"/>
<path d="M88.9614 107.575C88.9173 107.575 88.8811 107.581 88.855 107.596C88.8316 107.609 88.8199 107.628 88.8173 107.658C88.8103 107.734 88.8319 107.794 88.883 107.84C89.029 107.971 89.4251 107.994 89.9579 107.905C89.6278 107.747 89.1894 107.575 88.9614 107.575ZM89.39 108.073C89.1508 108.073 88.9303 108.036 88.8066 107.925C88.7284 107.854 88.6936 107.761 88.7039 107.647C88.7101 107.579 88.7433 107.527 88.8005 107.496C89.0952 107.334 90.0539 107.824 90.1621 107.88C90.1837 107.891 90.1959 107.915 90.1925 107.939C90.189 107.963 90.1707 107.982 90.147 107.987C89.9427 108.027 89.6549 108.073 89.39 108.073Z" fill="#AEC7DB"/>
<path d="M89.5631 107.013C89.5517 107.013 89.5405 107.013 89.5288 107.015C89.4248 107.025 89.4179 107.067 89.4158 107.08C89.3889 107.244 89.7741 107.652 90.0661 107.829C90.0382 107.641 89.9581 107.252 89.7597 107.087C89.7001 107.037 89.6352 107.013 89.5631 107.013ZM90.1361 107.988C90.1281 107.988 90.1201 107.986 90.1127 107.983C89.8259 107.853 89.2588 107.334 89.3032 107.062C89.3139 106.997 89.3594 106.917 89.5174 106.901C89.6349 106.89 89.7403 106.922 89.8329 107C90.135 107.251 90.1906 107.899 90.1927 107.926C90.1943 107.946 90.1853 107.966 90.1688 107.977C90.159 107.984 90.1475 107.988 90.1361 107.988Z" fill="#AEC7DB"/>
<path d="M98.4819 53.211L98.7316 54.0854C98.766 54.1532 98.6856 54.2224 98.5726 54.2224H88.5186C88.4305 54.2224 88.3576 54.1793 88.3521 54.124L88.264 53.2496C88.2579 53.189 88.3342 53.1376 88.4305 53.1376H98.3228C98.3954 53.1376 98.4598 53.1674 98.4819 53.211Z" fill="#AEC7DB"/>
<mask id="mask13_160_1268" style="mask-type:luminance" maskUnits="userSpaceOnUse" x="88" y="53" width="11" height="2">
<path d="M88.2637 53.1377H98.7398V54.2225H88.2637V53.1377Z" fill="white"/>
</mask>
<g mask="url(#mask13_160_1268)">
<g opacity="0.300003">
<path d="M98.4819 53.2109L98.7316 54.0852C98.766 54.153 98.6856 54.2222 98.5726 54.2222H88.5186C88.4305 54.2222 88.3576 54.1791 88.3521 54.1238L88.264 53.2494C88.2579 53.1888 88.3342 53.1375 88.4305 53.1375H98.3228C98.3954 53.1375 98.4598 53.1672 98.4819 53.2109Z" fill="white"/>
</g>
</g>
<path d="M97.1539 54.3172H97.4188C97.4715 54.3172 97.5116 54.29 97.5082 54.2568L97.384 53.1207C97.3802 53.0875 97.3342 53.0603 97.2813 53.0603H97.0163C96.9637 53.0603 96.9235 53.0875 96.927 53.1207L97.0515 54.2568C97.0549 54.29 97.1012 54.3172 97.1539 54.3172Z" fill="#1A2E35"/>
<path d="M89.2632 54.3172H89.5282C89.5808 54.3172 89.621 54.29 89.6176 54.2568L89.4933 53.1207C89.4896 53.0875 89.4436 53.0603 89.3907 53.0603H89.1257C89.073 53.0603 89.0329 53.0875 89.0363 53.1207L89.1608 54.2568C89.1643 54.29 89.2106 54.3172 89.2632 54.3172Z" fill="#1A2E35"/>
<path d="M93.2086 54.3172H93.4735C93.5262 54.3172 93.5663 54.29 93.5629 54.2568L93.4386 53.1207C93.4349 53.0875 93.3889 53.0603 93.336 53.0603H93.071C93.0184 53.0603 92.9782 53.0875 92.9817 53.1207L93.1061 54.2568C93.1096 54.29 93.1559 54.3172 93.2086 54.3172Z" fill="#1A2E35"/>
<path d="M92.0148 31.0021L91.5381 30.913C91.5381 30.913 91.8107 31.2524 92.0148 31.0021Z" fill="#1A2E35"/>
<mask id="mask14_160_1268" style="mask-type:luminance" maskUnits="userSpaceOnUse" x="49" y="17" width="50" height="50">
<path d="M49.9023 17.6374H98.8102V66.5425H49.9023V17.6374Z" fill="white"/>
</mask>
<g mask="url(#mask14_160_1268)">
<g opacity="0.199997">
<path d="M83.2099 64.8761C70.6273 69.766 56.4601 63.5312 51.5692 50.9457C46.678 38.3602 52.917 24.1949 65.4996 19.305C78.0851 14.4138 92.2523 20.6488 97.1432 33.2344C102.034 45.8199 95.7954 59.9852 83.2099 64.8761Z" fill="#AEC7DB"/>
</g>
</g>
<mask id="mask15_160_1268" style="mask-type:luminance" maskUnits="userSpaceOnUse" x="53" y="17" width="26" height="45">
<path d="M53.9512 17.6393H78.7852V61.5934H53.9512V17.6393Z" fill="white"/>
</mask>
<g mask="url(#mask15_160_1268)">
<g opacity="0.100006">
<path d="M78.7855 18.0471L59.6132 61.5935C59.3167 61.3698 59.0257 61.1384 58.7389 60.9024C56.9107 59.3902 55.2934 57.6008 53.9522 55.5606L53.9512 55.5582L70.5107 17.9463C73.2971 17.4981 76.0935 17.5484 78.7855 18.0471Z" fill="white"/>
</g>
</g>
<mask id="mask16_160_1268" style="mask-type:luminance" maskUnits="userSpaceOnUse" x="63" y="19" width="30" height="48">
<path d="M63.5898 19.3299H92.416V66.5417H63.5898V19.3299Z" fill="white"/>
</mask>
<g mask="url(#mask16_160_1268)">
<g opacity="0.100006">
<path d="M92.416 25.603L74.3897 66.5415C70.6133 66.5476 66.9188 65.6719 63.5898 64.0365L83.273 19.3297C86.7271 20.6809 89.8677 22.8143 92.416 25.603Z" fill="white"/>
</g>
</g>
<path d="M92.8352 57.2111C101.186 47.007 99.6855 31.9632 89.479 23.6105C79.2723 15.2576 64.229 16.7626 55.8782 26.9666C47.5255 37.173 49.026 52.2169 59.2324 60.5696C69.4391 68.9223 84.4825 67.4175 92.8352 57.2111ZM54.233 25.6207C63.328 14.5072 79.7115 12.8707 90.825 21.9655C101.938 31.0606 103.575 47.4441 94.4801 58.5576C85.3834 69.6729 69 71.3093 57.8865 62.2145C46.773 53.1195 45.1366 36.736 54.233 25.6207Z" fill="#AEC7DB"/>
<path d="M95.1295 57.1204C97.6908 58.6499 100.127 60.3318 102.522 62.0653C104.915 63.7994 107.249 65.6076 109.546 67.4601C111.843 69.312 114.093 71.2216 116.267 73.2251C117.356 74.2242 118.42 75.2525 119.466 76.3048C120.508 77.3611 121.535 78.4363 122.499 79.5873C123.031 80.2214 122.947 81.166 122.313 81.6975C121.828 82.1036 121.159 82.1486 120.635 81.865C119.316 81.1471 118.059 80.3536 116.818 79.541C115.579 78.7246 114.361 77.8841 113.166 77.0143C110.772 75.2802 108.455 73.4523 106.185 71.5666C103.915 69.6812 101.681 67.7516 99.5076 65.7484C97.3349 63.7441 95.2042 61.6884 93.1983 59.4801C92.6259 58.8499 92.6727 57.8753 93.3029 57.3029C93.8171 56.8358 94.5624 56.7823 95.1295 57.1204Z" fill="#AEC7DB"/>
<path d="M97.9909 56.3965L95.4219 56.7872L97.2615 58.3992C97.2615 58.3992 98.7134 57.8722 98.8565 56.8827L97.9909 56.3965Z" fill="#FFC4BE"/>
<path d="M94.0352 58.2587L95.6484 59.5248L97.6195 58.2382L95.4223 56.7872L94.0352 58.2587Z" fill="#FFC4BE"/>
</g>
<mask id="mask17_160_1268" style="mask-type:luminance" maskUnits="userSpaceOnUse" x="0" y="0" width="133" height="133">
<path d="M0 1.52588e-05H133V133H0V1.52588e-05Z" fill="white"/>
</mask>
<g mask="url(#mask17_160_1268)">
<path d="M81.8854 61.0601C82.3453 59.7639 83.637 58.8451 85 58.8451H106.293C107.908 58.8451 109.066 60.1235 108.878 61.7001L103.379 107.864C103.191 109.441 101.729 110.719 100.114 110.719H32.5437C30.928 110.719 29.7707 109.441 29.9585 107.864L34.5775 69.0879C34.7653 67.5114 36.2273 66.233 37.843 66.233H74.6111C77.7943 66.233 80.811 64.0877 81.8854 61.0601Z" fill="#AEC7DB"/>
<path d="M31.1846 108.594H101.781L105.804 61.0914H35.2073L31.1846 108.594Z" fill="#F0F0F0"/>
<path d="M31.1846 108.594H101.781L104.692 61.0914H35.2073L31.1846 108.594Z" fill="#E1E1E1"/>
<path d="M31.1846 108.594H101.781L104.208 59.584H33.6113L31.1846 108.594Z" fill="#F0F0F0"/>
<path d="M31.1846 108.594H101.781L102.742 59.584H33.6113L31.1846 108.594Z" fill="#E1E1E1"/>
<path d="M31.1846 108.594H101.781L102.202 58.254H31.6051L31.1846 108.594Z" fill="#F0F0F0"/>
<path d="M31.1847 108.594H101.782L100.333 59.207H30.1904L31.1847 108.594Z" fill="#E1E1E1"/>
<path d="M31.1851 108.594H101.782L99.6868 59.584H29.0898L31.1851 108.594Z" fill="#F0F0F0"/>
<path d="M31.1853 108.594H101.782L98.4456 60.3229H27.8486L31.1853 108.594Z" fill="#E1E1E1"/>
<path d="M31.1851 108.594H101.782L97.9133 60.7365H27.3164L31.1851 108.594Z" fill="#F0F0F0"/>
<path d="M66.5376 64.0577C66.5839 62.7296 67.5824 61.7882 68.9452 61.7882H90.2382C91.8536 61.7882 93.419 63.098 93.7345 64.7137L102.146 107.794C102.462 109.41 101.408 110.719 99.7926 110.719H32.2225C30.6071 110.719 29.0417 109.41 28.7262 107.794L21.7921 72.2832C21.4767 70.6678 22.5308 69.358 24.1462 69.358H60.9143C64.0976 69.358 66.4296 67.1598 66.5376 64.0577Z" fill="#AEC7DB"/>
<mask id="mask18_160_1268" style="mask-type:luminance" maskUnits="userSpaceOnUse" x="21" y="61" width="82" height="50">
<path d="M21.7363 61.7882H102.202V110.719H21.7363V61.7882Z" fill="white"/>
</mask>
<g mask="url(#mask18_160_1268)">
<g opacity="0.199997">
<path d="M66.5376 64.0577C66.5839 62.7296 67.5824 61.7882 68.9452 61.7882H90.2382C91.8536 61.7882 93.419 63.098 93.7345 64.7137L102.146 107.794C102.462 109.41 101.408 110.719 99.7926 110.719H32.2225C30.6071 110.719 29.0417 109.41 28.7262 107.794L21.7921 72.2832C21.4767 70.6678 22.5308 69.358 24.1462 69.358H60.9143C64.0976 69.358 66.4296 67.1598 66.5376 64.0577Z" fill="black"/>
</g>
</g>
</g>
</svg>
